HIERARCHY
ROOT SpineBase
{
  OFFSET 0.000000 0.000000 0.000000
  CHANNELS 6 Xposition Yposition Zposition Zrotation Xrotation Yrotation
  JOINT SpineMid
  {
    OFFSET 0.000000 29.323280 0.000000
    CHANNELS 3 Zrotation Xrotation Yrotation
    JOINT SpineShoulder
    {
      OFFSET 0.142250 21.855084 -0.509640
      CHANNELS 3 Zrotation Xrotation Yrotation
      JOINT Neck
      {
        OFFSET 0.099747 7.253122 -0.455353
        CHANNELS 3 Zrotation Xrotation Yrotation
        JOINT Head
        {
          OFFSET -1.086256 14.582052 -1.492657
          CHANNELS 3 Zrotation Xrotation Yrotation
          End Site
          {
            OFFSET 0 0 0
          }
        }
      }
      JOINT ShoulderLeft
      {
        OFFSET -17.088645 -2.009668 -2.655390
        CHANNELS 3 Zrotation Xrotation Yrotation
        JOINT ElbowLeft
        {
          OFFSET -2.836335 -26.419944 -0.237813
          CHANNELS 3 Zrotation Xrotation Yrotation
          JOINT WristLeft
          {
            OFFSET 1.918302 -19.793248 -6.070988
            CHANNELS 3 Zrotation Xrotation Yrotation
            JOINT HandLeft
            {
              OFFSET 2.016747 -4.062013 -1.246659
              CHANNELS 3 Zrotation Xrotation Yrotation
              JOINT HandTipLeft
              {
                OFFSET 0.319661 -6.543506 -0.444959
                CHANNELS 3 Zrotation Xrotation Yrotation
                End Site
                {
                  OFFSET 0 0 0
                }
              }
              JOINT ThumbLeft
              {
                OFFSET -2.562062 -2.640205 -1.644025
                CHANNELS 3 Zrotation Xrotation Yrotation
                End Site
                {
                  OFFSET 0 0 0
                }
              }
            }
          }
        }
      }
      JOINT ShoulderRight
      {
        OFFSET 16.518449 -2.195393 0.023420
        CHANNELS 3 Zrotation Xrotation Yrotation
        JOINT ElbowRight
        {
          OFFSET 3.723123 -24.816768 2.309223
          CHANNELS 3 Zrotation Xrotation Yrotation
          JOINT WristRight
          {
            OFFSET -0.540855 -19.985524 -6.813745
            CHANNELS 3 Zrotation Xrotation Yrotation
            JOINT HandRight
            {
              OFFSET -1.629760 -7.221138 -2.639655
              CHANNELS 3 Zrotation Xrotation Yrotation
              JOINT HandTipRight
              {
                OFFSET 0.303082 -6.695013 -4.129214
                CHANNELS 3 Zrotation Xrotation Yrotation
                End Site
                {
                  OFFSET 0 0 0
                }
              }
              JOINT ThumbRight
              {
                OFFSET -3.799230 0.500025 -2.611258
                CHANNELS 3 Zrotation Xrotation Yrotation
                End Site
                {
                  OFFSET 0 0 0
                }
              }
            }
          }
        }
      }
    }
  }
  JOINT HipLeft
  {
    OFFSET -6.910624 0.560022 -3.715287
    CHANNELS 3 Zrotation Xrotation Yrotation
    JOINT KneeLeft
    {
      OFFSET -2.704121 -25.903870 4.171783
      CHANNELS 3 Zrotation Xrotation Yrotation
      JOINT AnkleLeft
      {
        OFFSET -2.419852 -32.243213 8.949912
        CHANNELS 3 Zrotation Xrotation Yrotation
        JOINT FootLeft
        {
          OFFSET -2.480983 -8.736668 -2.795485
          CHANNELS 3 Zrotation Xrotation Yrotation
          End Site
          {
            OFFSET 0 0 0
          }
        }
      }
    }
  }
  JOINT HipRight
  {
    OFFSET 7.936640 1.165301 -2.927627
    CHANNELS 3 Zrotation Xrotation Yrotation
    JOINT KneeRight
    {
      OFFSET 5.645996 -25.282714 -0.535328
      CHANNELS 3 Zrotation Xrotation Yrotation
      JOINT AnkleRight
      {
        OFFSET -0.309015 -33.944741 5.290940
        CHANNELS 3 Zrotation Xrotation Yrotation
        JOINT FootRight
        {
          OFFSET 1.910787 -7.543725 -6.083061
          CHANNELS 3 Zrotation Xrotation Yrotation
          End Site
          {
            OFFSET 0 0 0
          }
        }
      }
    }
  }
}
MOTION
Frames: 5
Frame Time: 0.033333
-63.438825 64.027561 358.611287 8.399733 -0.837620 -37.759725 1.706159 0.528667 38.092394 0.413467 0.019956 0.427931 -25.075288 22.921988 2.811537 0.000000 0.000000 0.000000 79.192117 5.979353 -10.703710 24.697442 -40.568657 15.093140 -16.379139 4.662639 -2.966042 26.185370 29.126950 -7.555668 0.000000 0.000000 0.000000 0.000000 0.000000 0.000000 49.207359 19.601139 -3.649143 51.249875 -4.116857 -44.468002 15.124070 -14.670069 15.602513 -18.531363 -8.709833 -6.025337 0.000000 0.000000 0.000000 0.000000 0.000000 0.000000 -13.962160 3.250110 36.264484 9.484086 -15.640604 5.877197 62.248730 21.324038 -55.675791 0.000000 0.000000 0.000000 -5.200659 3.497066 38.553911 7.477679 0.108942 1.467743 20.167936 13.499381 -23.592744 0.000000 0.000000 0.000000
-63.231459 64.126275 358.550659 9.246380 -0.897824 -36.217157 2.056265 0.678894 36.590399 0.416685 0.027571 0.476574 -23.725048 22.092865 2.291268 0.000000 0.000000 0.000000 77.483468 5.782840 -10.557392 24.015074 -39.427319 12.918078 -15.775782 3.063022 -2.188852 25.495229 30.436193 -8.864941 0.000000 0.000000 0.000000 0.000000 0.000000 0.000000 49.695287 23.224084 -5.530842 51.213739 -9.257511 -36.687863 13.099200 -14.795452 16.214198 -18.140308 -8.251986 -7.572973 0.000000 0.000000 0.000000 0.000000 0.000000 0.000000 -15.119902 3.602864 34.583362 9.571638 -16.405280 6.036101 62.366593 21.986749 -56.106253 0.000000 0.000000 0.000000 -5.914656 2.314016 36.868483 7.974184 0.827094 1.472203 20.040940 13.978788 -23.337970 0.000000 0.000000 0.000000
-63.005047 64.179664 358.504801 10.220445 -0.912403 -34.258991 2.254521 0.716110 34.672113 0.373724 0.041394 0.519753 -21.548593 21.237710 1.729019 0.000000 0.000000 0.000000 76.113385 5.591220 -10.385452 22.965404 -38.188557 10.643707 -13.645293 0.253698 -1.576369 24.744416 31.582653 -9.642955 0.000000 0.000000 0.000000 0.000000 0.000000 0.000000 56.491301 27.705763 -9.204935 45.797322 -18.002026 -25.500812 13.555188 -13.869263 18.124730 -22.479820 -3.066099 -13.811068 0.000000 0.000000 0.000000 0.000000 0.000000 0.000000 -16.143118 4.020067 32.515475 9.511614 -17.031964 6.126910 62.379917 22.796687 -56.531935 0.000000 0.000000 0.000000 -6.605847 0.780376 34.691246 8.473290 2.076428 1.453016 19.829957 14.434844 -22.906340 0.000000 0.000000 0.000000
-62.802066 64.179907 358.495303 11.203057 -0.882714 -31.983329 2.264555 0.615005 32.432657 0.242391 0.047138 0.550709 -18.476695 20.122729 1.146254 0.000000 0.000000 0.000000 74.968284 5.600668 -10.381087 22.147163 -37.151390 8.948342 -10.651929 -2.737891 -1.173599 21.839398 34.511866 -11.165716 0.000000 0.000000 0.000000 0.000000 0.000000 0.000000 63.232828 31.231519 -13.113208 42.341264 -26.138792 -15.039047 12.781329 -12.869530 18.331467 -23.236425 0.054435 -18.156539 0.000000 0.000000 0.000000 0.000000 0.000000 0.000000 -17.170358 4.578285 30.128934 9.543329 -17.621844 6.250986 62.406464 23.285301 -56.763052 0.000000 0.000000 0.000000 -7.232803 -0.763813 32.171995 8.820139 3.542341 1.416271 19.781494 14.582748 -22.550442 0.000000 0.000000 0.000000
-62.636798 64.136512 358.492741 12.256597 -0.828837 -29.865221 2.153589 0.476475 30.347725 0.138592 0.051583 0.580871 -15.654008 18.788731 0.651234 0.000000 0.000000 0.000000 74.521936 4.869659 -9.568558 20.484383 -35.936907 6.388972 -8.881943 -4.428138 -0.681505 20.113976 34.279213 -9.539995 0.000000 0.000000 0.000000 0.000000 0.000000 0.000000 68.436227 33.002723 -16.047727 39.212146 -32.073902 -7.870741 15.004336 -11.898014 19.689922 -25.223115 2.488624 -21.550381 0.000000 0.000000 0.000000 0.000000 0.000000 0.000000 -18.019638 4.985263 27.925427 9.396689 -17.919976 6.256459 62.421253 23.684372 -56.871440 0.000000 0.000000 0.000000 -7.857685 -2.207926 29.812997 8.942842 5.112403 1.364099 19.738705 14.563736 -22.158573 0.000000 0.000000 0.000000
